<svg xmlns="http://www.w3.org/2000/svg" width="111.05" height="20.525" viewBox="0 0 111.05 20.525">
  <g id="_5_stars" data-name="5 stars" transform="translate(-657.427 -8663.752)">
    <path id="Path_80" data-name="Path 80" d="M166.276,437.542a1.228,1.228,0,0,1-.717-.234l-5.075-3.682-5.075,3.682a1.219,1.219,0,0,1-1.443-.005,1.253,1.253,0,0,1-.449-1.384l1.893-6.18-5.03-3.584a1.26,1.26,0,0,1-.441-1.391,1.235,1.235,0,0,1,1.164-.859l6.23-.009,1.982-6.025a1.228,1.228,0,0,1,2.34,0L163.6,423.9l6.259.009a1.235,1.235,0,0,1,1.165.859,1.257,1.257,0,0,1-.441,1.391l-5.03,3.584,1.893,6.18A1.253,1.253,0,0,1,167,437.3,1.21,1.21,0,0,1,166.276,437.542Z" transform="translate(507.549 8246.734)" fill="#ffb800"/>
    <path id="Path_81" data-name="Path 81" d="M192.139,437.542a1.23,1.23,0,0,1-.719-.233l-5.075-3.682-5.075,3.682a1.219,1.219,0,0,1-1.443-.005,1.256,1.256,0,0,1-.449-1.384l1.893-6.18-5.03-3.584a1.26,1.26,0,0,1-.441-1.391,1.235,1.235,0,0,1,1.163-.859l6.23-.009,1.984-6.025a1.227,1.227,0,0,1,2.338,0l1.951,6.025,6.261.009a1.234,1.234,0,0,1,1.164.859,1.257,1.257,0,0,1-.441,1.391l-5.03,3.584,1.893,6.18a1.253,1.253,0,0,1-.449,1.384,1.209,1.209,0,0,1-.724.239Z" transform="translate(526.607 8246.734)" fill="#ffb800"/>
    <path id="Path_82" data-name="Path 82" d="M179.208,437.542a1.229,1.229,0,0,1-.719-.233l-5.075-3.682-5.075,3.682a1.219,1.219,0,0,1-1.443-.005,1.253,1.253,0,0,1-.449-1.384l1.893-6.18-5.03-3.584a1.26,1.26,0,0,1-.441-1.391,1.235,1.235,0,0,1,1.164-.859l6.23-.009,1.983-6.025a1.227,1.227,0,0,1,2.338,0l1.95,6.025,6.261.009a1.234,1.234,0,0,1,1.164.859,1.258,1.258,0,0,1-.441,1.391l-5.03,3.584,1.893,6.18a1.253,1.253,0,0,1-.449,1.384A1.209,1.209,0,0,1,179.208,437.542Z" transform="translate(517.078 8246.734)" fill="#ffb800"/>
    <path id="Path_83" data-name="Path 83" d="M205.07,437.542a1.229,1.229,0,0,1-.719-.233l-5.075-3.682-5.075,3.682a1.219,1.219,0,0,1-1.443-.005,1.256,1.256,0,0,1-.449-1.384l1.893-6.18-5.03-3.583a1.26,1.26,0,0,1-.441-1.391,1.235,1.235,0,0,1,1.164-.859l6.23-.009,1.983-6.025a1.227,1.227,0,0,1,2.338,0L202.4,423.9l6.261.009a1.234,1.234,0,0,1,1.164.859,1.258,1.258,0,0,1-.441,1.391l-5.03,3.583,1.893,6.18a1.253,1.253,0,0,1-.449,1.384A1.209,1.209,0,0,1,205.07,437.542Z" transform="translate(536.136 8246.734)" fill="#ffb800"/>
    <path id="Path_84" data-name="Path 84" d="M218,437.542a1.233,1.233,0,0,1-.719-.233l-5.075-3.682-5.075,3.682a1.219,1.219,0,0,1-1.443-.005,1.256,1.256,0,0,1-.449-1.384l1.893-6.18-5.03-3.584a1.26,1.26,0,0,1-.441-1.391,1.235,1.235,0,0,1,1.163-.859l6.23-.009,1.983-6.025a1.227,1.227,0,0,1,2.338,0l1.951,6.025,6.261.009a1.232,1.232,0,0,1,1.164.859,1.258,1.258,0,0,1-.441,1.391l-5.03,3.584,1.895,6.18a1.253,1.253,0,0,1-.449,1.384,1.209,1.209,0,0,1-.725.239Z" transform="translate(545.665 8246.734)" fill="#ffb800"/>
  </g>
</svg>
