<svg width="94" height="123" viewBox="0 0 94 123" fill="none" xmlns="http://www.w3.org/2000/svg">
<path d="M8.09998 90.6608L47.6 110.761L85.6 90.6608V12.0608H8.09998V90.6608Z" fill="white"/>
<path d="M86.4 12.3608L7.29999 92.0608L48.3 112.361L86.4 92.8608V12.3608Z" fill="#F2F3F2"/>
<path d="M5.5 38.2608V92.3608L6.9 93.0608L46.4 113.161L47.6 113.761L48.8 113.161L86.9 93.0608L88.3 92.3608V9.46077H5.5V38.2608ZM8.1 90.8608V12.0608H85.7V90.8608L47.6 110.961L8.1 90.8608Z" fill="#DCDEDC"/>
<path d="M46.9 13.3608C47.3 13.3608 47.7 13.3608 48.1 13.4608L46.9 15.7608C45.1 15.6608 43.5 17.0608 43.4 18.8608C43.3 20.6608 44.7 22.2608 46.5 22.3608H46.9C47.7 22.3608 48.5 22.0608 49.1 21.5608L50.4 23.7608C49.4 24.4608 48.2 24.8608 46.9 24.8608C43.7 24.9608 41 22.5608 40.9 19.3608C40.8 16.1608 43.2 13.4608 46.4 13.3608H46.9V13.3608ZM51 18.2608L52.5 20.7608L51 23.1608L49.6 20.7608H46.7L48.2 18.2608H51ZM48.6 17.3608C48.6 16.9608 48.7 16.5608 48.9 16.2608C49.1 15.9608 49.5 15.6608 49.8 15.4608L50 15.3608C50.4 15.1608 50.5 15.0608 50.5 14.8608C50.5 14.6608 50.2 14.4608 50 14.4608C49.6 14.4608 49.3 14.6608 49.1 15.0608L48.6 14.5608C48.7 14.3608 48.9 14.1608 49.1 13.9608C49.4 13.7608 49.7 13.7608 50 13.7608C50.3 13.7608 50.7 13.8608 50.9 14.0608C51.1 14.2608 51.3 14.5608 51.3 14.8608C51.3 15.3608 51 15.7608 50.4 15.9608L50.1 16.1608C49.8 16.3608 49.6 16.4608 49.5 16.7608H51.3V17.4608L48.6 17.3608V17.3608ZM46.9 29.8608L56.4 24.4608V9.46077H37.3V24.3608L46.9 29.8608ZM90.2 65.2608H3.60002L0.400024 72.2608L3.60002 79.2608H90.2L93.3 72.2608L90.2 65.2608Z" fill="#FF492C"/>
<path d="M17.3 50.2508C17.96 50.2508 18.54 50.3841 19.04 50.6508C19.54 50.9174 19.9267 51.3008 20.2 51.8008C20.4733 52.2941 20.61 52.8608 20.61 53.5008C20.61 54.1341 20.47 54.6908 20.19 55.1708C19.9033 55.6441 19.5033 56.0141 18.99 56.2808C18.4767 56.5474 17.8833 56.6808 17.21 56.6808H15.08C15.0333 56.6808 15.01 56.7074 15.01 56.7608V60.5808C15.01 60.6341 14.99 60.6774 14.95 60.7108C14.9167 60.7441 14.8733 60.7608 14.82 60.7608H13.07C13.0167 60.7608 12.9733 60.7441 12.94 60.7108C12.9067 60.6774 12.89 60.6341 12.89 60.5808V50.4308C12.89 50.3774 12.9067 50.3341 12.94 50.3008C12.9733 50.2674 13.0167 50.2508 13.07 50.2508H17.3V50.2508ZM16.98 54.9908C17.4467 54.9908 17.8167 54.8574 18.09 54.5908C18.37 54.3241 18.51 53.9774 18.51 53.5508C18.51 53.1041 18.37 52.7474 18.09 52.4808C17.8167 52.2074 17.4467 52.0708 16.98 52.0708H15.08C15.0333 52.0708 15.01 52.0974 15.01 52.1508V54.9108C15.01 54.9641 15.0333 54.9908 15.08 54.9908H16.98ZM28.18 56.1108C28.2333 56.4908 28.25 56.9141 28.23 57.3808C28.2233 57.5074 28.16 57.5708 28.04 57.5708H23.41C23.35 57.5708 23.3267 57.5941 23.34 57.6408C23.3733 57.8408 23.43 58.0408 23.51 58.2408C23.77 58.8008 24.3 59.0808 25.1 59.0808C25.74 59.0741 26.2433 58.8141 26.61 58.3008C26.6567 58.2408 26.7033 58.2108 26.75 58.2108C26.7767 58.2108 26.81 58.2308 26.85 58.2708L27.93 59.3308C27.9833 59.3841 28.01 59.4308 28.01 59.4708C28.01 59.4908 27.99 59.5308 27.95 59.5908C27.6167 60.0041 27.1933 60.3208 26.68 60.5408C26.1533 60.7674 25.58 60.8808 24.96 60.8808C24.1067 60.8808 23.38 60.6874 22.78 60.3008C22.1867 59.9074 21.76 59.3608 21.5 58.6608C21.2867 58.1608 21.18 57.5074 21.18 56.7008C21.18 56.1474 21.2567 55.6608 21.41 55.2408C21.6433 54.5341 22.0467 53.9708 22.62 53.5508C23.1933 53.1308 23.8733 52.9208 24.66 52.9208C25.66 52.9208 26.4633 53.2108 27.07 53.7908C27.6767 54.3708 28.0467 55.1441 28.18 56.1108V56.1108ZM24.68 54.7508C24.0467 54.7508 23.63 55.0441 23.43 55.6308C23.39 55.7641 23.3567 55.9241 23.33 56.1108C23.33 56.1574 23.3567 56.1808 23.41 56.1808H26C26.06 56.1808 26.08 56.1574 26.06 56.1108C26.0067 55.8241 25.98 55.6841 25.98 55.6908C25.8933 55.3908 25.7367 55.1574 25.51 54.9908C25.29 54.8308 25.0133 54.7508 24.68 54.7508V54.7508ZM33.38 52.9508C33.74 52.9508 34.0267 53.0208 34.24 53.1608C34.3134 53.2008 34.34 53.2741 34.32 53.3808L34.01 55.0908C34.0033 55.2108 33.9333 55.2474 33.8 55.2008C33.6467 55.1474 33.4733 55.1208 33.28 55.1208C33.2 55.1208 33.0867 55.1308 32.94 55.1508C32.5867 55.1841 32.2833 55.3174 32.03 55.5508C31.7833 55.7841 31.66 56.0974 31.66 56.4908V60.5808C31.66 60.6341 31.64 60.6774 31.6 60.7108C31.5667 60.7441 31.5267 60.7608 31.48 60.7608H29.72C29.6733 60.7608 29.63 60.7441 29.59 60.7108C29.5567 60.6774 29.54 60.6341 29.54 60.5808V53.2308C29.54 53.1841 29.5567 53.1408 29.59 53.1008C29.63 53.0674 29.6733 53.0508 29.72 53.0508H31.48C31.5267 53.0508 31.5667 53.0674 31.6 53.1008C31.64 53.1408 31.66 53.1841 31.66 53.2308V53.8008C31.66 53.8274 31.67 53.8474 31.69 53.8608C31.7033 53.8741 31.7167 53.8674 31.73 53.8408C32.1433 53.2474 32.6933 52.9508 33.38 52.9508V52.9508ZM39.77 53.0408C39.8233 53.0408 39.8667 53.0574 39.9 53.0908C39.9334 53.1241 39.95 53.1674 39.95 53.2208V54.6408C39.95 54.6941 39.9334 54.7374 39.9 54.7708C39.8667 54.8041 39.8233 54.8208 39.77 54.8208H38.32C38.2667 54.8208 38.24 54.8441 38.24 54.8908V60.5808C38.24 60.6341 38.2233 60.6774 38.19 60.7108C38.1567 60.7441 38.1133 60.7608 38.06 60.7608H36.31C36.2567 60.7608 36.2133 60.7441 36.18 60.7108C36.1467 60.6774 36.13 60.6341 36.13 60.5808V54.8908C36.13 54.8441 36.1033 54.8208 36.05 54.8208H35.17C35.1167 54.8208 35.0733 54.8041 35.04 54.7708C35.0067 54.7374 34.99 54.6941 34.99 54.6408V53.2208C34.99 53.1674 35.0067 53.1241 35.04 53.0908C35.0733 53.0574 35.1167 53.0408 35.17 53.0408H36.05C36.1033 53.0408 36.13 53.0141 36.13 52.9608V52.6308C36.13 52.0108 36.2233 51.5274 36.41 51.1808C36.6033 50.8408 36.91 50.5974 37.33 50.4508C37.7567 50.3041 38.3467 50.2408 39.1 50.2608H39.67C39.7167 50.2608 39.7567 50.2774 39.79 50.3108C39.83 50.3508 39.85 50.3941 39.85 50.4408V51.6508C39.85 51.7041 39.83 51.7474 39.79 51.7808C39.7567 51.8208 39.7167 51.8408 39.67 51.8408H39.17C38.8233 51.8474 38.58 51.9174 38.44 52.0508C38.3067 52.1908 38.24 52.4408 38.24 52.8008V52.9608C38.24 53.0141 38.2667 53.0408 38.32 53.0408H39.77V53.0408ZM44.12 60.8808C43.28 60.8808 42.56 60.6608 41.96 60.2208C41.36 59.7808 40.95 59.1808 40.73 58.4208C40.59 57.9541 40.52 57.4441 40.52 56.8908C40.52 56.3041 40.59 55.7741 40.73 55.3008C40.9633 54.5608 41.38 53.9808 41.98 53.5608C42.58 53.1408 43.3 52.9308 44.14 52.9308C44.9533 52.9308 45.6534 53.1374 46.24 53.5508C46.8134 53.9708 47.22 54.5508 47.46 55.2908C47.6267 55.7908 47.71 56.3141 47.71 56.8608C47.71 57.4008 47.64 57.9074 47.5 58.3808C47.28 59.1608 46.87 59.7708 46.27 60.2108C45.6767 60.6574 44.96 60.8808 44.12 60.8808V60.8808ZM44.12 59.0708C44.4467 59.0708 44.7267 58.9708 44.96 58.7708C45.1933 58.5708 45.36 58.2941 45.46 57.9408C45.5333 57.6208 45.57 57.2708 45.57 56.8908C45.57 56.4708 45.5333 56.1174 45.46 55.8308C45.3467 55.4908 45.1767 55.2241 44.95 55.0308C44.7167 54.8441 44.4333 54.7508 44.1 54.7508C43.7667 54.7508 43.4867 54.8441 43.26 55.0308C43.0333 55.2241 42.87 55.4908 42.77 55.8308C42.69 56.0641 42.65 56.4174 42.65 56.8908C42.65 57.3441 42.6867 57.6941 42.76 57.9408C42.86 58.2941 43.0267 58.5708 43.26 58.7708C43.4933 58.9708 43.78 59.0708 44.12 59.0708ZM52.91 52.9508C53.27 52.9508 53.5567 53.0208 53.77 53.1608C53.85 53.2008 53.8767 53.2741 53.85 53.3808L53.54 55.0908C53.5333 55.2108 53.4634 55.2474 53.33 55.2008C53.1767 55.1474 53.0033 55.1208 52.81 55.1208C52.73 55.1208 52.62 55.1308 52.48 55.1508C52.12 55.1841 51.8133 55.3174 51.56 55.5508C51.3133 55.7841 51.19 56.0974 51.19 56.4908V60.5808C51.19 60.6341 51.17 60.6774 51.13 60.7108C51.0967 60.7441 51.0533 60.7608 51 60.7608H49.25C49.2033 60.7608 49.16 60.7441 49.12 60.7108C49.0867 60.6774 49.07 60.6341 49.07 60.5808V53.2308C49.07 53.1841 49.0867 53.1408 49.12 53.1008C49.16 53.0674 49.2033 53.0508 49.25 53.0508H51C51.0533 53.0508 51.0967 53.0674 51.13 53.1008C51.17 53.1408 51.19 53.1841 51.19 53.2308V53.8008C51.19 53.8274 51.1967 53.8474 51.21 53.8608C51.2367 53.8741 51.2533 53.8674 51.26 53.8408C51.6733 53.2474 52.2233 52.9508 52.91 52.9508V52.9508ZM63.36 52.9308C64.14 52.9308 64.75 53.1641 65.19 53.6308C65.63 54.1041 65.85 54.7674 65.85 55.6208V60.5808C65.85 60.6341 65.8334 60.6774 65.8 60.7108C65.7667 60.7441 65.7267 60.7608 65.68 60.7608H63.92C63.8733 60.7608 63.83 60.7441 63.79 60.7108C63.7567 60.6774 63.74 60.6341 63.74 60.5808V56.0808C63.74 55.6741 63.6367 55.3508 63.43 55.1108C63.2167 54.8708 62.9334 54.7508 62.58 54.7508C62.2334 54.7508 61.95 54.8708 61.73 55.1108C61.51 55.3508 61.4 55.6708 61.4 56.0708V60.5808C61.4 60.6341 61.3833 60.6774 61.35 60.7108C61.31 60.7441 61.2667 60.7608 61.22 60.7608H59.48C59.4267 60.7608 59.3833 60.7441 59.35 60.7108C59.3167 60.6774 59.3 60.6341 59.3 60.5808V56.0808C59.3 55.6808 59.19 55.3574 58.97 55.1108C58.75 54.8708 58.4633 54.7508 58.11 54.7508C57.7967 54.7508 57.53 54.8441 57.31 55.0308C57.0967 55.2241 56.97 55.4908 56.93 55.8308V60.5808C56.93 60.6341 56.9133 60.6774 56.88 60.7108C56.84 60.7441 56.7967 60.7608 56.75 60.7608H55C54.9467 60.7608 54.9033 60.7441 54.87 60.7108C54.8367 60.6774 54.82 60.6341 54.82 60.5808V53.2308C54.82 53.1841 54.8367 53.1408 54.87 53.1008C54.9033 53.0674 54.9467 53.0508 55 53.0508H56.75C56.7967 53.0508 56.84 53.0674 56.88 53.1008C56.9133 53.1408 56.93 53.1841 56.93 53.2308V53.8208C56.93 53.8474 56.94 53.8674 56.96 53.8808C56.98 53.8874 57 53.8741 57.02 53.8408C57.4333 53.2341 58.07 52.9308 58.93 52.9308C59.43 52.9308 59.8667 53.0374 60.24 53.2508C60.6134 53.4574 60.9 53.7574 61.1 54.1508C61.1267 54.2108 61.1633 54.2108 61.21 54.1508C61.4233 53.7374 61.72 53.4308 62.1 53.2308C62.4733 53.0308 62.8933 52.9308 63.36 52.9308V52.9308ZM74.12 56.1108C74.18 56.4908 74.2 56.9141 74.18 57.3808C74.1667 57.5074 74.1 57.5708 73.98 57.5708H69.35C69.29 57.5708 69.27 57.5941 69.29 57.6408C69.3167 57.8408 69.37 58.0408 69.45 58.2408C69.71 58.8008 70.24 59.0808 71.04 59.0808C71.68 59.0741 72.1867 58.8141 72.56 58.3008C72.6 58.2408 72.6434 58.2108 72.69 58.2108C72.7234 58.2108 72.76 58.2308 72.8 58.2708L73.88 59.3308C73.9267 59.3841 73.95 59.4308 73.95 59.4708C73.95 59.4908 73.93 59.5308 73.89 59.5908C73.5633 60.0041 73.14 60.3208 72.62 60.5408C72.1 60.7674 71.53 60.8808 70.91 60.8808C70.05 60.8808 69.3234 60.6874 68.73 60.3008C68.13 59.9074 67.7 59.3608 67.44 58.6608C67.2334 58.1608 67.13 57.5074 67.13 56.7008C67.13 56.1474 67.2033 55.6608 67.35 55.2408C67.5833 54.5341 67.9867 53.9708 68.56 53.5508C69.1333 53.1308 69.8167 52.9208 70.61 52.9208C71.61 52.9208 72.4133 53.2108 73.02 53.7908C73.6267 54.3708 73.9934 55.1441 74.12 56.1108V56.1108ZM70.62 54.7508C69.9934 54.7508 69.58 55.0441 69.38 55.6308C69.34 55.7641 69.3033 55.9241 69.27 56.1108C69.27 56.1574 69.2967 56.1808 69.35 56.1808H71.94C72 56.1808 72.02 56.1574 72 56.1108C71.9533 55.8241 71.93 55.6841 71.93 55.6908C71.8367 55.3908 71.68 55.1574 71.46 54.9908C71.2333 54.8308 70.9534 54.7508 70.62 54.7508V54.7508ZM79.32 52.9508C79.68 52.9508 79.9667 53.0208 80.18 53.1608C80.26 53.2008 80.29 53.2741 80.27 53.3808L79.96 55.0908C79.9467 55.2108 79.8733 55.2474 79.74 55.2008C79.5933 55.1474 79.42 55.1208 79.22 55.1208C79.14 55.1208 79.03 55.1308 78.89 55.1508C78.53 55.1841 78.2233 55.3174 77.97 55.5508C77.7233 55.7841 77.6 56.0974 77.6 56.4908V60.5808C77.6 60.6341 77.5834 60.6774 77.55 60.7108C77.51 60.7441 77.4667 60.7608 77.42 60.7608H75.66C75.6134 60.7608 75.5733 60.7441 75.54 60.7108C75.5 60.6774 75.48 60.6341 75.48 60.5808V53.2308C75.48 53.1841 75.5 53.1408 75.54 53.1008C75.5733 53.0674 75.6134 53.0508 75.66 53.0508H77.42C77.4667 53.0508 77.51 53.0674 77.55 53.1008C77.5834 53.1408 77.6 53.1841 77.6 53.2308V53.8008C77.6 53.8274 77.61 53.8474 77.63 53.8608C77.65 53.8741 77.6667 53.8674 77.68 53.8408C78.0867 53.2474 78.6333 52.9508 79.32 52.9508ZM38.06 35.4408C38.06 35.3941 38.0767 35.3508 38.11 35.3108C38.1433 35.2774 38.1833 35.2608 38.23 35.2608H39.99C40.0367 35.2608 40.08 35.2774 40.12 35.3108C40.1533 35.3508 40.17 35.3941 40.17 35.4408V45.5808C40.17 45.6341 40.1533 45.6774 40.12 45.7108C40.08 45.7441 40.0367 45.7608 39.99 45.7608H38.23C38.1833 45.7608 38.1433 45.7441 38.11 45.7108C38.0767 45.6774 38.06 45.6341 38.06 45.5808V41.4408C38.06 41.3941 38.0333 41.3708 37.98 41.3708H34.66C34.6133 41.3708 34.59 41.3941 34.59 41.4408V45.5808C34.59 45.6341 34.5733 45.6774 34.54 45.7108C34.5 45.7441 34.4567 45.7608 34.41 45.7608H32.65C32.6034 45.7608 32.5633 45.7441 32.53 45.7108C32.49 45.6774 32.47 45.6341 32.47 45.5808V35.4408C32.47 35.3941 32.49 35.3508 32.53 35.3108C32.5633 35.2774 32.6034 35.2608 32.65 35.2608H34.41C34.4567 35.2608 34.5 35.2774 34.54 35.3108C34.5733 35.3508 34.59 35.3941 34.59 35.4408V39.4708C34.59 39.5241 34.6133 39.5508 34.66 39.5508H37.98C38.0333 39.5508 38.06 39.5241 38.06 39.4708V35.4408ZM42.9 37.1808C42.56 37.1808 42.2767 37.0674 42.05 36.8408C41.8233 36.6208 41.71 36.3408 41.71 36.0008C41.71 35.6474 41.82 35.3608 42.04 35.1408C42.26 34.9208 42.5467 34.8108 42.9 34.8108C43.2534 34.8108 43.54 34.9208 43.76 35.1408C43.98 35.3608 44.09 35.6474 44.09 36.0008C44.09 36.3408 43.9767 36.6208 43.75 36.8408C43.5233 37.0674 43.24 37.1808 42.9 37.1808V37.1808ZM42 45.7608C41.9533 45.7608 41.91 45.7441 41.87 45.7108C41.8367 45.6774 41.82 45.6341 41.82 45.5808V38.2208C41.82 38.1674 41.8367 38.1241 41.87 38.0908C41.91 38.0574 41.9533 38.0408 42 38.0408H43.76C43.8067 38.0408 43.8467 38.0574 43.88 38.0908C43.92 38.1241 43.94 38.1674 43.94 38.2208V45.5808C43.94 45.6341 43.92 45.6774 43.88 45.7108C43.8467 45.7441 43.8067 45.7608 43.76 45.7608H42ZM50.29 38.2308C50.29 38.1841 50.31 38.1408 50.35 38.1008C50.3833 38.0674 50.4233 38.0508 50.47 38.0508H52.23C52.2767 38.0508 52.32 38.0674 52.36 38.1008C52.3933 38.1408 52.41 38.1841 52.41 38.2308V45.0708C52.41 46.3774 52.0333 47.3108 51.28 47.8708C50.5267 48.4374 49.5533 48.7208 48.36 48.7208C48.0067 48.7208 47.6167 48.6941 47.19 48.6408C47.09 48.6274 47.04 48.5641 47.04 48.4508L47.1 46.9008C47.1 46.7674 47.17 46.7108 47.31 46.7308C47.67 46.7908 48 46.8208 48.3 46.8208C48.94 46.8208 49.4333 46.6841 49.78 46.4108C50.12 46.1241 50.29 45.6741 50.29 45.0608C50.29 45.0274 50.28 45.0074 50.26 45.0008C50.24 44.9941 50.22 45.0041 50.2 45.0308C49.82 45.4374 49.2667 45.6408 48.54 45.6408C47.8867 45.6408 47.29 45.4841 46.75 45.1708C46.2033 44.8574 45.8134 44.3508 45.58 43.6508C45.4334 43.1908 45.36 42.5941 45.36 41.8608C45.36 41.0808 45.45 40.4474 45.63 39.9608C45.8367 39.3474 46.19 38.8574 46.69 38.4908C47.19 38.1174 47.7733 37.9308 48.44 37.9308C49.2067 37.9308 49.7933 38.1608 50.2 38.6208C50.22 38.6408 50.24 38.6474 50.26 38.6408C50.28 38.6341 50.29 38.6174 50.29 38.5908V38.2308V38.2308ZM50.17 43.0708C50.25 42.7774 50.29 42.3674 50.29 41.8408C50.29 41.5341 50.28 41.2974 50.26 41.1308C50.24 40.9574 50.2067 40.7941 50.16 40.6408C50.0667 40.3741 49.9167 40.1574 49.71 39.9908C49.5033 39.8308 49.2433 39.7508 48.93 39.7508C48.63 39.7508 48.3767 39.8308 48.17 39.9908C47.9567 40.1574 47.8 40.3741 47.7 40.6408C47.56 40.9408 47.49 41.3474 47.49 41.8608C47.49 42.4208 47.55 42.8208 47.67 43.0608C47.7567 43.3341 47.9133 43.5508 48.14 43.7108C48.3667 43.8774 48.6333 43.9608 48.94 43.9608C49.26 43.9608 49.5267 43.8774 49.74 43.7108C49.9467 43.5508 50.09 43.3374 50.17 43.0708V43.0708ZM57.95 37.9308C58.75 37.9308 59.3933 38.1774 59.88 38.6708C60.3667 39.1574 60.61 39.8208 60.61 40.6608V45.5808C60.61 45.6341 60.5933 45.6774 60.56 45.7108C60.5267 45.7441 60.4867 45.7608 60.44 45.7608H58.68C58.6333 45.7608 58.59 45.7441 58.55 45.7108C58.5167 45.6774 58.5 45.6341 58.5 45.5808V41.0908C58.5 40.6974 58.3867 40.3741 58.16 40.1208C57.94 39.8741 57.6433 39.7508 57.27 39.7508C56.9033 39.7508 56.6067 39.8741 56.38 40.1208C56.1533 40.3741 56.04 40.6974 56.04 41.0908V45.5808C56.04 45.6341 56.0234 45.6774 55.99 45.7108C55.9567 45.7441 55.9133 45.7608 55.86 45.7608H54.11C54.0567 45.7608 54.0133 45.7441 53.98 45.7108C53.9467 45.6774 53.93 45.6341 53.93 45.5808V35.4408C53.93 35.3941 53.9467 35.3508 53.98 35.3108C54.0133 35.2774 54.0567 35.2608 54.11 35.2608H55.86C55.9133 35.2608 55.9567 35.2774 55.99 35.3108C56.0234 35.3508 56.04 35.3941 56.04 35.4408V38.7608C56.04 38.7874 56.05 38.8074 56.07 38.8208C56.09 38.8274 56.1033 38.8208 56.11 38.8008C56.5233 38.2208 57.1367 37.9308 57.95 37.9308Z" fill="#252530"/>
<path d="M33.14 76.2408C32.62 76.2408 32.1667 76.1574 31.78 75.9908C31.3933 75.8241 31.0933 75.5908 30.88 75.2908C30.6733 74.9908 30.57 74.6374 30.57 74.2308V73.9808C30.57 73.9474 30.5833 73.9174 30.61 73.8908C30.63 73.8708 30.6567 73.8608 30.69 73.8608H31.58C31.6133 73.8608 31.6433 73.8708 31.67 73.8908C31.69 73.9174 31.7 73.9474 31.7 73.9808V74.1708C31.7 74.4774 31.8367 74.7308 32.11 74.9308C32.3833 75.1374 32.7567 75.2408 33.23 75.2408C33.6367 75.2408 33.9433 75.1541 34.15 74.9808C34.3567 74.8074 34.46 74.5841 34.46 74.3108C34.46 74.1241 34.4033 73.9641 34.29 73.8308C34.1767 73.7041 34.0167 73.5874 33.81 73.4808C33.5967 73.3741 33.28 73.2408 32.86 73.0808C32.3867 72.9074 32.0033 72.7441 31.71 72.5908C31.4167 72.4374 31.1733 72.2274 30.98 71.9608C30.78 71.7008 30.68 71.3741 30.68 70.9808C30.68 70.3941 30.8933 69.9308 31.32 69.5908C31.7467 69.2508 32.3167 69.0808 33.03 69.0808C33.53 69.0808 33.9733 69.1674 34.36 69.3408C34.74 69.5141 35.0367 69.7574 35.25 70.0708C35.4633 70.3774 35.57 70.7341 35.57 71.1408V71.3108C35.57 71.3441 35.5567 71.3741 35.53 71.4008C35.51 71.4208 35.4833 71.4308 35.45 71.4308H34.55C34.5167 71.4308 34.49 71.4208 34.47 71.4008C34.4433 71.3741 34.43 71.3441 34.43 71.3108V71.2008C34.43 70.8874 34.3033 70.6241 34.05 70.4108C33.79 70.1908 33.4333 70.0808 32.98 70.0808C32.6133 70.0808 32.33 70.1574 32.13 70.3108C31.9233 70.4641 31.82 70.6808 31.82 70.9608C31.82 71.1608 31.8733 71.3241 31.98 71.4508C32.0867 71.5774 32.2467 71.6908 32.46 71.7908C32.6733 71.8974 33.0033 72.0308 33.45 72.1908C33.9233 72.3708 34.3033 72.5341 34.59 72.6808C34.87 72.8274 35.1133 73.0308 35.32 73.2908C35.52 73.5574 35.62 73.8874 35.62 74.2808C35.62 74.8808 35.3967 75.3574 34.95 75.7108C34.51 76.0641 33.9067 76.2408 33.14 76.2408V76.2408ZM39.6 69.1508C40.02 69.1508 40.39 69.2374 40.71 69.4108C41.03 69.5841 41.2767 69.8274 41.45 70.1408C41.63 70.4608 41.72 70.8274 41.72 71.2408C41.72 71.6474 41.63 72.0074 41.45 72.3208C41.27 72.6341 41.0167 72.8741 40.69 73.0408C40.3567 73.2141 39.9733 73.3008 39.54 73.3008H37.94C37.9067 73.3008 37.89 73.3174 37.89 73.3508V76.0408C37.89 76.0741 37.88 76.1008 37.86 76.1208C37.8333 76.1474 37.8033 76.1608 37.77 76.1608H36.85C36.8167 76.1608 36.79 76.1474 36.77 76.1208C36.7433 76.1008 36.73 76.0741 36.73 76.0408V69.2708C36.73 69.2374 36.7433 69.2074 36.77 69.1808C36.79 69.1608 36.8167 69.1508 36.85 69.1508H39.6ZM39.43 72.3608C39.77 72.3608 40.0433 72.2608 40.25 72.0608C40.4567 71.8608 40.56 71.5974 40.56 71.2708C40.56 70.9374 40.4567 70.6674 40.25 70.4608C40.0433 70.2541 39.77 70.1508 39.43 70.1508H37.94C37.9067 70.1508 37.89 70.1674 37.89 70.2008V72.3108C37.89 72.3441 37.9067 72.3608 37.94 72.3608H39.43V72.3608ZM46.67 76.1608C46.6033 76.1608 46.5567 76.1308 46.53 76.0708L45.21 73.1908C45.1967 73.1641 45.1767 73.1508 45.15 73.1508H43.95C43.9167 73.1508 43.9 73.1674 43.9 73.2008V76.0408C43.9 76.0741 43.8867 76.1008 43.86 76.1208C43.84 76.1474 43.8133 76.1608 43.78 76.1608H42.86C42.8267 76.1608 42.8 76.1474 42.78 76.1208C42.7533 76.1008 42.74 76.0741 42.74 76.0408V69.2808C42.74 69.2474 42.7533 69.2208 42.78 69.2008C42.8 69.1741 42.8267 69.1608 42.86 69.1608H45.61C46.0167 69.1608 46.3767 69.2441 46.69 69.4108C47.0033 69.5841 47.2467 69.8241 47.42 70.1308C47.5933 70.4441 47.68 70.8008 47.68 71.2008C47.68 71.6608 47.5633 72.0508 47.33 72.3708C47.09 72.6974 46.76 72.9241 46.34 73.0508C46.3267 73.0508 46.3167 73.0574 46.31 73.0708C46.3033 73.0841 46.3033 73.0974 46.31 73.1108L47.72 76.0208C47.7333 76.0474 47.74 76.0674 47.74 76.0808C47.74 76.1341 47.7033 76.1608 47.63 76.1608H46.67V76.1608ZM43.95 70.1608C43.9167 70.1608 43.9 70.1774 43.9 70.2108V72.2008C43.9 72.2341 43.9167 72.2508 43.95 72.2508H45.45C45.77 72.2508 46.0267 72.1541 46.22 71.9608C46.42 71.7741 46.52 71.5241 46.52 71.2108C46.52 70.8974 46.42 70.6441 46.22 70.4508C46.0267 70.2574 45.77 70.1608 45.45 70.1608H43.95V70.1608ZM48.99 76.1608C48.9567 76.1608 48.9267 76.1474 48.9 76.1208C48.88 76.1008 48.87 76.0741 48.87 76.0408V69.2808C48.87 69.2474 48.88 69.2208 48.9 69.2008C48.9267 69.1741 48.9567 69.1608 48.99 69.1608H49.91C49.9433 69.1608 49.97 69.1741 49.99 69.2008C50.0167 69.2208 50.03 69.2474 50.03 69.2808V76.0408C50.03 76.0741 50.0167 76.1008 49.99 76.1208C49.97 76.1474 49.9433 76.1608 49.91 76.1608H48.99ZM55.56 69.2808C55.56 69.2474 55.5733 69.2208 55.6 69.2008C55.62 69.1741 55.6467 69.1608 55.68 69.1608H56.6C56.6333 69.1608 56.6633 69.1741 56.69 69.2008C56.71 69.2208 56.72 69.2474 56.72 69.2808V76.0408C56.72 76.0741 56.71 76.1008 56.69 76.1208C56.6633 76.1474 56.6333 76.1608 56.6 76.1608H55.71C55.6433 76.1608 55.5967 76.1341 55.57 76.0808L52.69 71.3608C52.6767 71.3408 52.6633 71.3308 52.65 71.3308C52.6367 71.3374 52.63 71.3541 52.63 71.3808L52.65 76.0408C52.65 76.0741 52.6367 76.1008 52.61 76.1208C52.59 76.1474 52.5633 76.1608 52.53 76.1608H51.61C51.5767 76.1608 51.55 76.1474 51.53 76.1208C51.5033 76.1008 51.49 76.0741 51.49 76.0408V69.2808C51.49 69.2474 51.5033 69.2208 51.53 69.2008C51.55 69.1741 51.5767 69.1608 51.61 69.1608H52.5C52.5667 69.1608 52.6133 69.1874 52.64 69.2408L55.51 73.9608C55.5233 73.9808 55.5367 73.9874 55.55 73.9808C55.5633 73.9808 55.57 73.9674 55.57 73.9408L55.56 69.2808V69.2808ZM60.52 76.2408C60.02 76.2408 59.58 76.1441 59.2 75.9508C58.82 75.7508 58.5267 75.4708 58.32 75.1108C58.1133 74.7508 58.01 74.3374 58.01 73.8708V71.4508C58.01 70.9774 58.1133 70.5608 58.32 70.2008C58.5267 69.8474 58.82 69.5708 59.2 69.3708C59.58 69.1774 60.02 69.0808 60.52 69.0808C61.0133 69.0808 61.45 69.1774 61.83 69.3708C62.2033 69.5641 62.4933 69.8274 62.7 70.1608C62.9067 70.4941 63.01 70.8708 63.01 71.2908V71.3708C63.01 71.4041 63 71.4308 62.98 71.4508C62.9533 71.4774 62.9233 71.4908 62.89 71.4908H61.98C61.9467 71.4908 61.92 71.4774 61.9 71.4508C61.8733 71.4308 61.86 71.4041 61.86 71.3708V71.3208C61.86 70.9608 61.7367 70.6641 61.49 70.4308C61.25 70.1974 60.9267 70.0808 60.52 70.0808C60.1133 70.0808 59.7867 70.2041 59.54 70.4508C59.2933 70.6908 59.17 71.0108 59.17 71.4108V73.9108C59.17 74.3108 59.3 74.6341 59.56 74.8808C59.82 75.1208 60.1567 75.2408 60.57 75.2408C60.97 75.2408 61.2867 75.1341 61.52 74.9208C61.7467 74.7141 61.86 74.4274 61.86 74.0608V73.4408C61.86 73.4074 61.8433 73.3908 61.81 73.3908H60.58C60.5467 73.3908 60.5167 73.3774 60.49 73.3508C60.47 73.3308 60.46 73.3041 60.46 73.2708V72.5308C60.46 72.4974 60.47 72.4708 60.49 72.4508C60.5167 72.4241 60.5467 72.4108 60.58 72.4108H62.89C62.9233 72.4108 62.9533 72.4241 62.98 72.4508C63 72.4708 63.01 72.4974 63.01 72.5308V73.8108C63.01 74.5774 62.7867 75.1741 62.34 75.6008C61.8867 76.0274 61.28 76.2408 60.52 76.2408V76.2408Z" fill="white"/>
<path d="M33.77 94.2208C33.75 94.2408 33.7433 94.2608 33.75 94.2808C33.7633 94.3008 33.7833 94.3108 33.81 94.3108H37.74C37.7866 94.3108 37.8266 94.3274 37.86 94.3608C37.9 94.3941 37.92 94.4341 37.92 94.4808V95.8908C37.92 95.9374 37.9 95.9774 37.86 96.0108C37.8266 96.0441 37.7866 96.0608 37.74 96.0608H31.22C31.1666 96.0608 31.1233 96.0441 31.09 96.0108C31.0566 95.9774 31.04 95.9374 31.04 95.8908V94.5508C31.04 94.4641 31.07 94.3908 31.13 94.3308C31.6033 93.8708 32.0866 93.3674 32.58 92.8208C33.0733 92.2741 33.3833 91.9341 33.51 91.8008C33.7766 91.4808 34.05 91.1741 34.33 90.8808C35.21 89.9074 35.65 89.1841 35.65 88.7108C35.65 88.3708 35.53 88.0908 35.29 87.8708C35.05 87.6574 34.7366 87.5508 34.35 87.5508C33.9633 87.5508 33.65 87.6574 33.41 87.8708C33.1633 88.0908 33.04 88.3808 33.04 88.7408V89.1008C33.04 89.1474 33.0233 89.1874 32.99 89.2208C32.9566 89.2541 32.9166 89.2708 32.87 89.2708H31.16C31.1133 89.2708 31.0733 89.2541 31.04 89.2208C31 89.1874 30.98 89.1474 30.98 89.1008V88.4208C31.0133 87.9008 31.18 87.4374 31.48 87.0308C31.78 86.6308 32.1766 86.3241 32.67 86.1108C33.17 85.8974 33.73 85.7908 34.35 85.7908C35.0366 85.7908 35.6333 85.9208 36.14 86.1808C36.6466 86.4341 37.0366 86.7774 37.31 87.2108C37.59 87.6508 37.73 88.1341 37.73 88.6608C37.73 89.0674 37.6266 89.4841 37.42 89.9108C37.22 90.3374 36.9166 90.7974 36.51 91.2908C36.21 91.6641 35.8866 92.0374 35.54 92.4108C35.1933 92.7774 34.6766 93.3074 33.99 94.0008L33.77 94.2208V94.2208ZM42.63 96.2208C41.5633 96.2208 40.7233 95.9241 40.11 95.3308C39.49 94.7374 39.18 93.9274 39.18 92.9008V89.0708C39.18 88.0641 39.49 87.2674 40.11 86.6808C40.7233 86.0874 41.5633 85.7908 42.63 85.7908C43.69 85.7908 44.5333 86.0874 45.16 86.6808C45.78 87.2674 46.09 88.0641 46.09 89.0708V92.9008C46.09 93.9274 45.78 94.7374 45.16 95.3308C44.5333 95.9241 43.69 96.2208 42.63 96.2208ZM42.63 94.4708C43.0633 94.4708 43.4066 94.3374 43.66 94.0708C43.92 93.8041 44.05 93.4474 44.05 93.0008V89.0108C44.05 88.5708 43.92 88.2174 43.66 87.9508C43.4066 87.6841 43.0633 87.5508 42.63 87.5508C42.2033 87.5508 41.8633 87.6841 41.61 87.9508C41.35 88.2174 41.22 88.5708 41.22 89.0108V93.0008C41.22 93.4474 41.35 93.8041 41.61 94.0708C41.8633 94.3374 42.2033 94.4708 42.63 94.4708ZM50.15 94.2208C50.13 94.2408 50.1266 94.2608 50.14 94.2808C50.1466 94.3008 50.1666 94.3108 50.2 94.3108H54.13C54.1766 94.3108 54.2166 94.3274 54.25 94.3608C54.2833 94.3941 54.3 94.4341 54.3 94.4808V95.8908C54.3 95.9374 54.2833 95.9774 54.25 96.0108C54.2166 96.0441 54.1766 96.0608 54.13 96.0608H47.6C47.5533 96.0608 47.5133 96.0441 47.48 96.0108C47.4466 95.9774 47.43 95.9374 47.43 95.8908V94.5508C47.43 94.4641 47.4566 94.3908 47.51 94.3308C47.99 93.8708 48.4733 93.3674 48.96 92.8208C49.4533 92.2741 49.7633 91.9341 49.89 91.8008C50.1633 91.4808 50.44 91.1741 50.72 90.8808C51.6 89.9074 52.04 89.1841 52.04 88.7108C52.04 88.3708 51.92 88.0908 51.68 87.8708C51.4333 87.6574 51.1166 87.5508 50.73 87.5508C50.3433 87.5508 50.03 87.6574 49.79 87.8708C49.55 88.0908 49.43 88.3808 49.43 88.7408V89.1008C49.43 89.1474 49.4133 89.1874 49.38 89.2208C49.3466 89.2541 49.3033 89.2708 49.25 89.2708H47.54C47.4933 89.2708 47.4533 89.2541 47.42 89.2208C47.3866 89.1874 47.37 89.1474 47.37 89.1008V88.4208C47.3966 87.9008 47.56 87.4374 47.86 87.0308C48.16 86.6308 48.56 86.3241 49.06 86.1108C49.56 85.8974 50.1166 85.7908 50.73 85.7908C51.4166 85.7908 52.0133 85.9208 52.52 86.1808C53.0333 86.4341 53.4266 86.7774 53.7 87.2108C53.9733 87.6508 54.11 88.1341 54.11 88.6608C54.11 89.0674 54.01 89.4841 53.81 89.9108C53.6033 90.3374 53.2966 90.7974 52.89 91.2908C52.59 91.6641 52.2666 92.0374 51.92 92.4108C51.5733 92.7774 51.0566 93.3074 50.37 94.0008L50.15 94.2208V94.2208ZM58.27 94.2208C58.25 94.2408 58.2466 94.2608 58.26 94.2808C58.2666 94.3008 58.2866 94.3108 58.32 94.3108H62.25C62.2966 94.3108 62.3366 94.3274 62.37 94.3608C62.4033 94.3941 62.42 94.4341 62.42 94.4808V95.8908C62.42 95.9374 62.4033 95.9774 62.37 96.0108C62.3366 96.0441 62.2966 96.0608 62.25 96.0608H55.72C55.6733 96.0608 55.6333 96.0441 55.6 96.0108C55.5666 95.9774 55.55 95.9374 55.55 95.8908V94.5508C55.55 94.4641 55.5766 94.3908 55.63 94.3308C56.11 93.8708 56.5933 93.3674 57.08 92.8208C57.5733 92.2741 57.8833 91.9341 58.01 91.8008C58.2833 91.4808 58.56 91.1741 58.84 90.8808C59.72 89.9074 60.16 89.1841 60.16 88.7108C60.16 88.3708 60.04 88.0908 59.8 87.8708C59.5533 87.6574 59.2366 87.5508 58.85 87.5508C58.4633 87.5508 58.15 87.6574 57.91 87.8708C57.67 88.0908 57.55 88.3808 57.55 88.7408V89.1008C57.55 89.1474 57.5333 89.1874 57.5 89.2208C57.4666 89.2541 57.4233 89.2708 57.37 89.2708H55.66C55.6133 89.2708 55.5733 89.2541 55.54 89.2208C55.5066 89.1874 55.49 89.1474 55.49 89.1008V88.4208C55.5166 87.9008 55.68 87.4374 55.98 87.0308C56.28 86.6308 56.68 86.3241 57.18 86.1108C57.68 85.8974 58.2366 85.7908 58.85 85.7908C59.5366 85.7908 60.1333 85.9208 60.64 86.1808C61.1533 86.4341 61.5466 86.7774 61.82 87.2108C62.0933 87.6508 62.23 88.1341 62.23 88.6608C62.23 89.0674 62.13 89.4841 61.93 89.9108C61.7233 90.3374 61.4166 90.7974 61.01 91.2908C60.71 91.6641 60.3866 92.0374 60.04 92.4108C59.6933 92.7774 59.1766 93.3074 58.49 94.0008L58.27 94.2208V94.2208Z" fill="#252530"/>
</svg>
