<svg width="94" height="123" viewBox="0 0 94 123" fill="none" xmlns="http://www.w3.org/2000/svg">
<path d="M8.09998 90.6608L47.6 110.761L85.6 90.6608V12.0608H8.09998V90.6608Z" fill="white"/>
<path d="M86.4 12.3608L7.29999 92.0608L48.3 112.361L86.4 92.8608V12.3608Z" fill="#F2F3F2"/>
<path d="M5.5 38.2608V92.3608L6.9 93.0608L46.4 113.161L47.6 113.761L48.8 113.161L86.9 93.0608L88.3 92.3608V9.46077H5.5V38.2608ZM8.1 90.8608V12.0608H85.7V90.8608L47.6 110.961L8.1 90.8608Z" fill="#DCDEDC"/>
<path d="M46.9 13.3608C47.3 13.3608 47.7 13.3608 48.1 13.4608L46.9 15.7608C45.1 15.6608 43.5 17.0608 43.4 18.8608C43.3 20.6608 44.7 22.2608 46.5 22.3608H46.9C47.7 22.3608 48.5 22.0608 49.1 21.5608L50.4 23.7608C49.4 24.4608 48.2 24.8608 46.9 24.8608C43.7 24.9608 41 22.5608 40.9 19.3608C40.8 16.1608 43.2 13.4608 46.4 13.3608H46.9V13.3608ZM51 18.2608L52.5 20.7608L51 23.1608L49.6 20.7608H46.7L48.2 18.2608H51ZM48.6 17.3608C48.6 16.9608 48.7 16.5608 48.9 16.2608C49.1 15.9608 49.5 15.6608 49.8 15.4608L50 15.3608C50.4 15.1608 50.5 15.0608 50.5 14.8608C50.5 14.6608 50.2 14.4608 50 14.4608C49.6 14.4608 49.3 14.6608 49.1 15.0608L48.6 14.5608C48.7 14.3608 48.9 14.1608 49.1 13.9608C49.4 13.7608 49.7 13.7608 50 13.7608C50.3 13.7608 50.7 13.8608 50.9 14.0608C51.1 14.2608 51.3 14.5608 51.3 14.8608C51.3 15.3608 51 15.7608 50.4 15.9608L50.1 16.1608C49.8 16.3608 49.6 16.4608 49.5 16.7608H51.3V17.4608L48.6 17.3608V17.3608ZM46.9 29.8608L56.4 24.4608V9.46077H37.3V24.3608L46.9 29.8608ZM90.2 65.2608H3.60002L0.400024 72.2608L3.60002 79.2608H90.2L93.3 72.2608L90.2 65.2608Z" fill="#FF492C"/>
<path d="M19.09 60.7608C19.03 60.7608 18.98 60.7408 18.94 60.7008C18.9 60.6541 18.88 60.6008 18.88 60.5408V48.3808C18.88 48.3208 18.9 48.2674 18.94 48.2208C18.98 48.1808 19.03 48.1608 19.09 48.1608H21.2C21.26 48.1608 21.31 48.1808 21.35 48.2208C21.3967 48.2674 21.42 48.3208 21.42 48.3808V58.4908C21.42 58.5508 21.45 58.5808 21.51 58.5808H27.39C27.45 58.5808 27.5033 58.6008 27.55 58.6408C27.59 58.6874 27.61 58.7408 27.61 58.8008V60.5408C27.61 60.6008 27.59 60.6541 27.55 60.7008C27.5033 60.7408 27.45 60.7608 27.39 60.7608H19.09V60.7608ZM37.2 55.1808C37.2733 55.6341 37.2967 56.1441 37.27 56.7108C37.2633 56.8574 37.1867 56.9308 37.04 56.9308H31.48C31.4067 56.9308 31.3833 56.9608 31.41 57.0208C31.4433 57.2608 31.5067 57.5008 31.6 57.7408C31.9133 58.4074 32.55 58.7408 33.51 58.7408C34.2767 58.7341 34.8833 58.4241 35.33 57.8108C35.3767 57.7374 35.43 57.7008 35.49 57.7008C35.53 57.7008 35.5733 57.7241 35.62 57.7708L36.91 59.0508C36.97 59.1108 37 59.1641 37 59.2108C37 59.2374 36.9767 59.2874 36.93 59.3608C36.5367 59.8474 36.0267 60.2274 35.4 60.5008C34.78 60.7674 34.0967 60.9008 33.35 60.9008C32.3167 60.9008 31.4433 60.6674 30.73 60.2008C30.0167 59.7341 29.5033 59.0808 29.19 58.2408C28.9367 57.6408 28.81 56.8541 28.81 55.8808C28.81 55.2208 28.9 54.6408 29.08 54.1408C29.36 53.2874 29.8433 52.6074 30.53 52.1008C31.2233 51.6008 32.0433 51.3508 32.99 51.3508C34.19 51.3508 35.1533 51.6974 35.88 52.3908C36.6067 53.0841 37.0467 54.0141 37.2 55.1808V55.1808ZM33.01 53.5408C32.25 53.5408 31.75 53.8941 31.51 54.6008C31.4633 54.7608 31.4233 54.9541 31.39 55.1808C31.39 55.2408 31.42 55.2708 31.48 55.2708H34.59C34.6633 55.2708 34.6867 55.2408 34.66 55.1808C34.6 54.8341 34.57 54.6674 34.57 54.6808C34.4633 54.3208 34.2767 54.0408 34.01 53.8408C33.7367 53.6408 33.4033 53.5408 33.01 53.5408V53.5408ZM42.44 51.3608C43.22 51.3608 43.9167 51.4974 44.53 51.7708C45.1433 52.0374 45.62 52.4074 45.96 52.8808C46.3 53.3474 46.47 53.8674 46.47 54.4408V60.5408C46.47 60.6008 46.45 60.6541 46.41 60.7008C46.37 60.7408 46.32 60.7608 46.26 60.7608H44.15C44.09 60.7608 44.04 60.7408 44 60.7008C43.9533 60.6541 43.93 60.6008 43.93 60.5408V59.9508C43.93 59.9174 43.92 59.8941 43.9 59.8808C43.8733 59.8674 43.85 59.8774 43.83 59.9108C43.3233 60.5708 42.5133 60.9008 41.4 60.9008C40.46 60.9008 39.7033 60.6741 39.13 60.2208C38.55 59.7674 38.26 59.0941 38.26 58.2008C38.26 57.2808 38.5867 56.5641 39.24 56.0508C39.8867 55.5441 40.81 55.2908 42.01 55.2908H43.84C43.9 55.2908 43.93 55.2608 43.93 55.2008V54.8008C43.93 54.4074 43.81 54.0974 43.57 53.8708C43.33 53.6508 42.97 53.5408 42.49 53.5408C42.1233 53.5408 41.8167 53.6074 41.57 53.7408C41.3233 53.8741 41.1633 54.0608 41.09 54.3008C41.0567 54.4341 40.98 54.4941 40.86 54.4808L38.68 54.1908C38.5333 54.1641 38.4667 54.1108 38.48 54.0308C38.5267 53.5241 38.7267 53.0674 39.08 52.6608C39.4333 52.2541 39.9033 51.9374 40.49 51.7108C41.07 51.4774 41.72 51.3608 42.44 51.3608V51.3608ZM42.08 59.0108C42.5933 59.0108 43.03 58.8741 43.39 58.6008C43.75 58.3274 43.93 57.9741 43.93 57.5408V56.8908C43.93 56.8308 43.9 56.8008 43.84 56.8008H42.55C42.01 56.8008 41.5867 56.9041 41.28 57.1108C40.9733 57.3108 40.82 57.5974 40.82 57.9708C40.82 58.2974 40.9333 58.5508 41.16 58.7308C41.3867 58.9174 41.6933 59.0108 42.08 59.0108ZM54 48.3808C54 48.3208 54.02 48.2674 54.06 48.2208C54.1 48.1808 54.15 48.1608 54.21 48.1608H56.32C56.38 48.1608 56.43 48.1808 56.47 48.2208C56.51 48.2674 56.53 48.3208 56.53 48.3808V60.5408C56.53 60.6008 56.51 60.6541 56.47 60.7008C56.43 60.7408 56.38 60.7608 56.32 60.7608H54.21C54.15 60.7608 54.1 60.7408 54.06 60.7008C54.02 60.6541 54 60.6008 54 60.5408V59.9508C54 59.9174 53.9867 59.8974 53.96 59.8908C53.9333 59.8841 53.91 59.8908 53.89 59.9108C53.3833 60.5708 52.6933 60.9008 51.82 60.9008C50.98 60.9008 50.2567 60.6674 49.65 60.2008C49.0433 59.7341 48.6067 59.0941 48.34 58.2808C48.14 57.6541 48.04 56.9274 48.04 56.1008C48.04 55.2474 48.1467 54.5041 48.36 53.8708C48.64 53.0974 49.0767 52.4874 49.67 52.0408C50.2633 51.5874 50.9967 51.3608 51.87 51.3608C52.7367 51.3608 53.41 51.6608 53.89 52.2608C53.91 52.3008 53.9333 52.3141 53.96 52.3008C53.9867 52.2874 54 52.2641 54 52.2308V48.3808V48.3808ZM53.62 57.9508C53.86 57.5108 53.98 56.9041 53.98 56.1308C53.98 55.3308 53.8467 54.7008 53.58 54.2408C53.3067 53.7741 52.9067 53.5408 52.38 53.5408C51.8133 53.5408 51.3867 53.7741 51.1 54.2408C50.8 54.7141 50.65 55.3508 50.65 56.1508C50.65 56.8708 50.7767 57.4708 51.03 57.9508C51.33 58.4708 51.7733 58.7308 52.36 58.7308C52.9 58.7308 53.32 58.4708 53.62 57.9508V57.9508ZM66.63 55.1808C66.7033 55.6341 66.7267 56.1441 66.7 56.7108C66.6933 56.8574 66.6167 56.9308 66.47 56.9308H60.91C60.8367 56.9308 60.8133 56.9608 60.84 57.0208C60.8733 57.2608 60.9367 57.5008 61.03 57.7408C61.3433 58.4074 61.98 58.7408 62.94 58.7408C63.7067 58.7341 64.3133 58.4241 64.76 57.8108C64.8067 57.7374 64.86 57.7008 64.92 57.7008C64.96 57.7008 65.0033 57.7241 65.05 57.7708L66.34 59.0508C66.4 59.1108 66.43 59.1641 66.43 59.2108C66.43 59.2374 66.4067 59.2874 66.36 59.3608C65.9667 59.8474 65.4567 60.2274 64.83 60.5008C64.21 60.7674 63.5267 60.9008 62.78 60.9008C61.7467 60.9008 60.8733 60.6674 60.16 60.2008C59.4467 59.7341 58.9333 59.0808 58.62 58.2408C58.3667 57.6408 58.24 56.8541 58.24 55.8808C58.24 55.2208 58.33 54.6408 58.51 54.1408C58.79 53.2874 59.2733 52.6074 59.96 52.1008C60.6533 51.6008 61.4733 51.3508 62.42 51.3508C63.62 51.3508 64.5833 51.6974 65.31 52.3908C66.0367 53.0841 66.4767 54.0141 66.63 55.1808V55.1808ZM62.44 53.5408C61.68 53.5408 61.18 53.8941 60.94 54.6008C60.8933 54.7608 60.8533 54.9541 60.82 55.1808C60.82 55.2408 60.85 55.2708 60.91 55.2708H64.02C64.0933 55.2708 64.1167 55.2408 64.09 55.1808C64.03 54.8341 64 54.6674 64 54.6808C63.8933 54.3208 63.7067 54.0408 63.44 53.8408C63.1667 53.6408 62.8333 53.5408 62.44 53.5408ZM72.88 51.3808C73.3133 51.3808 73.6533 51.4641 73.9 51.6308C74 51.6841 74.0367 51.7741 74.01 51.9008L73.63 53.9608C73.6233 54.1008 73.54 54.1408 73.38 54.0808C73.2 54.0208 72.99 53.9908 72.75 53.9908C72.6567 53.9908 72.5267 54.0041 72.36 54.0308C71.9267 54.0641 71.56 54.2208 71.26 54.5008C70.96 54.7874 70.81 55.1641 70.81 55.6308V60.5408C70.81 60.6008 70.79 60.6541 70.75 60.7008C70.7033 60.7408 70.65 60.7608 70.59 60.7608H68.49C68.43 60.7608 68.3767 60.7408 68.33 60.7008C68.29 60.6541 68.27 60.6008 68.27 60.5408V51.7208C68.27 51.6608 68.29 51.6108 68.33 51.5708C68.3767 51.5308 68.43 51.5108 68.49 51.5108H70.59C70.65 51.5108 70.7033 51.5308 70.75 51.5708C70.79 51.6108 70.81 51.6608 70.81 51.7208V52.4108C70.81 52.4441 70.82 52.4674 70.84 52.4808C70.8667 52.4941 70.8867 52.4874 70.9 52.4608C71.3933 51.7408 72.0533 51.3808 72.88 51.3808V51.3808Z" fill="#252530"/>
<path d="M33.14 76.2408C32.62 76.2408 32.1667 76.1574 31.78 75.9908C31.3933 75.8241 31.0933 75.5908 30.88 75.2908C30.6733 74.9908 30.57 74.6374 30.57 74.2308V73.9808C30.57 73.9474 30.5833 73.9174 30.61 73.8908C30.63 73.8708 30.6567 73.8608 30.69 73.8608H31.58C31.6133 73.8608 31.6433 73.8708 31.67 73.8908C31.69 73.9174 31.7 73.9474 31.7 73.9808V74.1708C31.7 74.4774 31.8367 74.7308 32.11 74.9308C32.3833 75.1374 32.7567 75.2408 33.23 75.2408C33.6367 75.2408 33.9433 75.1541 34.15 74.9808C34.3567 74.8074 34.46 74.5841 34.46 74.3108C34.46 74.1241 34.4033 73.9641 34.29 73.8308C34.1767 73.7041 34.0167 73.5874 33.81 73.4808C33.5967 73.3741 33.28 73.2408 32.86 73.0808C32.3867 72.9074 32.0033 72.7441 31.71 72.5908C31.4167 72.4374 31.1733 72.2274 30.98 71.9608C30.78 71.7008 30.68 71.3741 30.68 70.9808C30.68 70.3941 30.8933 69.9308 31.32 69.5908C31.7467 69.2508 32.3167 69.0808 33.03 69.0808C33.53 69.0808 33.9733 69.1674 34.36 69.3408C34.74 69.5141 35.0367 69.7574 35.25 70.0708C35.4633 70.3774 35.57 70.7341 35.57 71.1408V71.3108C35.57 71.3441 35.5567 71.3741 35.53 71.4008C35.51 71.4208 35.4833 71.4308 35.45 71.4308H34.55C34.5167 71.4308 34.49 71.4208 34.47 71.4008C34.4433 71.3741 34.43 71.3441 34.43 71.3108V71.2008C34.43 70.8874 34.3033 70.6241 34.05 70.4108C33.79 70.1908 33.4333 70.0808 32.98 70.0808C32.6133 70.0808 32.33 70.1574 32.13 70.3108C31.9233 70.4641 31.82 70.6808 31.82 70.9608C31.82 71.1608 31.8733 71.3241 31.98 71.4508C32.0867 71.5774 32.2467 71.6908 32.46 71.7908C32.6733 71.8974 33.0033 72.0308 33.45 72.1908C33.9233 72.3708 34.3033 72.5341 34.59 72.6808C34.87 72.8274 35.1133 73.0308 35.32 73.2908C35.52 73.5574 35.62 73.8874 35.62 74.2808C35.62 74.8808 35.3967 75.3574 34.95 75.7108C34.51 76.0641 33.9067 76.2408 33.14 76.2408V76.2408ZM39.6 69.1508C40.02 69.1508 40.39 69.2374 40.71 69.4108C41.03 69.5841 41.2767 69.8274 41.45 70.1408C41.63 70.4608 41.72 70.8274 41.72 71.2408C41.72 71.6474 41.63 72.0074 41.45 72.3208C41.27 72.6341 41.0167 72.8741 40.69 73.0408C40.3567 73.2141 39.9733 73.3008 39.54 73.3008H37.94C37.9067 73.3008 37.89 73.3174 37.89 73.3508V76.0408C37.89 76.0741 37.88 76.1008 37.86 76.1208C37.8333 76.1474 37.8033 76.1608 37.77 76.1608H36.85C36.8167 76.1608 36.79 76.1474 36.77 76.1208C36.7433 76.1008 36.73 76.0741 36.73 76.0408V69.2708C36.73 69.2374 36.7433 69.2074 36.77 69.1808C36.79 69.1608 36.8167 69.1508 36.85 69.1508H39.6ZM39.43 72.3608C39.77 72.3608 40.0433 72.2608 40.25 72.0608C40.4567 71.8608 40.56 71.5974 40.56 71.2708C40.56 70.9374 40.4567 70.6674 40.25 70.4608C40.0433 70.2541 39.77 70.1508 39.43 70.1508H37.94C37.9067 70.1508 37.89 70.1674 37.89 70.2008V72.3108C37.89 72.3441 37.9067 72.3608 37.94 72.3608H39.43V72.3608ZM46.67 76.1608C46.6033 76.1608 46.5567 76.1308 46.53 76.0708L45.21 73.1908C45.1967 73.1641 45.1767 73.1508 45.15 73.1508H43.95C43.9167 73.1508 43.9 73.1674 43.9 73.2008V76.0408C43.9 76.0741 43.8867 76.1008 43.86 76.1208C43.84 76.1474 43.8133 76.1608 43.78 76.1608H42.86C42.8267 76.1608 42.8 76.1474 42.78 76.1208C42.7533 76.1008 42.74 76.0741 42.74 76.0408V69.2808C42.74 69.2474 42.7533 69.2208 42.78 69.2008C42.8 69.1741 42.8267 69.1608 42.86 69.1608H45.61C46.0167 69.1608 46.3767 69.2441 46.69 69.4108C47.0033 69.5841 47.2467 69.8241 47.42 70.1308C47.5933 70.4441 47.68 70.8008 47.68 71.2008C47.68 71.6608 47.5633 72.0508 47.33 72.3708C47.09 72.6974 46.76 72.9241 46.34 73.0508C46.3267 73.0508 46.3167 73.0574 46.31 73.0708C46.3033 73.0841 46.3033 73.0974 46.31 73.1108L47.72 76.0208C47.7333 76.0474 47.74 76.0674 47.74 76.0808C47.74 76.1341 47.7033 76.1608 47.63 76.1608H46.67V76.1608ZM43.95 70.1608C43.9167 70.1608 43.9 70.1774 43.9 70.2108V72.2008C43.9 72.2341 43.9167 72.2508 43.95 72.2508H45.45C45.77 72.2508 46.0267 72.1541 46.22 71.9608C46.42 71.7741 46.52 71.5241 46.52 71.2108C46.52 70.8974 46.42 70.6441 46.22 70.4508C46.0267 70.2574 45.77 70.1608 45.45 70.1608H43.95V70.1608ZM48.99 76.1608C48.9567 76.1608 48.9267 76.1474 48.9 76.1208C48.88 76.1008 48.87 76.0741 48.87 76.0408V69.2808C48.87 69.2474 48.88 69.2208 48.9 69.2008C48.9267 69.1741 48.9567 69.1608 48.99 69.1608H49.91C49.9433 69.1608 49.97 69.1741 49.99 69.2008C50.0167 69.2208 50.03 69.2474 50.03 69.2808V76.0408C50.03 76.0741 50.0167 76.1008 49.99 76.1208C49.97 76.1474 49.9433 76.1608 49.91 76.1608H48.99ZM55.56 69.2808C55.56 69.2474 55.5733 69.2208 55.6 69.2008C55.62 69.1741 55.6467 69.1608 55.68 69.1608H56.6C56.6333 69.1608 56.6633 69.1741 56.69 69.2008C56.71 69.2208 56.72 69.2474 56.72 69.2808V76.0408C56.72 76.0741 56.71 76.1008 56.69 76.1208C56.6633 76.1474 56.6333 76.1608 56.6 76.1608H55.71C55.6433 76.1608 55.5967 76.1341 55.57 76.0808L52.69 71.3608C52.6767 71.3408 52.6633 71.3308 52.65 71.3308C52.6367 71.3374 52.63 71.3541 52.63 71.3808L52.65 76.0408C52.65 76.0741 52.6367 76.1008 52.61 76.1208C52.59 76.1474 52.5633 76.1608 52.53 76.1608H51.61C51.5767 76.1608 51.55 76.1474 51.53 76.1208C51.5033 76.1008 51.49 76.0741 51.49 76.0408V69.2808C51.49 69.2474 51.5033 69.2208 51.53 69.2008C51.55 69.1741 51.5767 69.1608 51.61 69.1608H52.5C52.5667 69.1608 52.6133 69.1874 52.64 69.2408L55.51 73.9608C55.5233 73.9808 55.5367 73.9874 55.55 73.9808C55.5633 73.9808 55.57 73.9674 55.57 73.9408L55.56 69.2808V69.2808ZM60.52 76.2408C60.02 76.2408 59.58 76.1441 59.2 75.9508C58.82 75.7508 58.5267 75.4708 58.32 75.1108C58.1133 74.7508 58.01 74.3374 58.01 73.8708V71.4508C58.01 70.9774 58.1133 70.5608 58.32 70.2008C58.5267 69.8474 58.82 69.5708 59.2 69.3708C59.58 69.1774 60.02 69.0808 60.52 69.0808C61.0133 69.0808 61.45 69.1774 61.83 69.3708C62.2033 69.5641 62.4933 69.8274 62.7 70.1608C62.9067 70.4941 63.01 70.8708 63.01 71.2908V71.3708C63.01 71.4041 63 71.4308 62.98 71.4508C62.9533 71.4774 62.9233 71.4908 62.89 71.4908H61.98C61.9467 71.4908 61.92 71.4774 61.9 71.4508C61.8733 71.4308 61.86 71.4041 61.86 71.3708V71.3208C61.86 70.9608 61.7367 70.6641 61.49 70.4308C61.25 70.1974 60.9267 70.0808 60.52 70.0808C60.1133 70.0808 59.7867 70.2041 59.54 70.4508C59.2933 70.6908 59.17 71.0108 59.17 71.4108V73.9108C59.17 74.3108 59.3 74.6341 59.56 74.8808C59.82 75.1208 60.1567 75.2408 60.57 75.2408C60.97 75.2408 61.2867 75.1341 61.52 74.9208C61.7467 74.7141 61.86 74.4274 61.86 74.0608V73.4408C61.86 73.4074 61.8433 73.3908 61.81 73.3908H60.58C60.5467 73.3908 60.5167 73.3774 60.49 73.3508C60.47 73.3308 60.46 73.3041 60.46 73.2708V72.5308C60.46 72.4974 60.47 72.4708 60.49 72.4508C60.5167 72.4241 60.5467 72.4108 60.58 72.4108H62.89C62.9233 72.4108 62.9533 72.4241 62.98 72.4508C63 72.4708 63.01 72.4974 63.01 72.5308V73.8108C63.01 74.5774 62.7867 75.1741 62.34 75.6008C61.8867 76.0274 61.28 76.2408 60.52 76.2408V76.2408Z" fill="white"/>
<path d="M33.77 94.2208C33.75 94.2408 33.7433 94.2608 33.75 94.2808C33.7633 94.3008 33.7833 94.3108 33.81 94.3108H37.74C37.7866 94.3108 37.8266 94.3274 37.86 94.3608C37.9 94.3941 37.92 94.4341 37.92 94.4808V95.8908C37.92 95.9374 37.9 95.9774 37.86 96.0108C37.8266 96.0441 37.7866 96.0608 37.74 96.0608H31.22C31.1666 96.0608 31.1233 96.0441 31.09 96.0108C31.0566 95.9774 31.04 95.9374 31.04 95.8908V94.5508C31.04 94.4641 31.07 94.3908 31.13 94.3308C31.6033 93.8708 32.0866 93.3674 32.58 92.8208C33.0733 92.2741 33.3833 91.9341 33.51 91.8008C33.7766 91.4808 34.05 91.1741 34.33 90.8808C35.21 89.9074 35.65 89.1841 35.65 88.7108C35.65 88.3708 35.53 88.0908 35.29 87.8708C35.05 87.6574 34.7366 87.5508 34.35 87.5508C33.9633 87.5508 33.65 87.6574 33.41 87.8708C33.1633 88.0908 33.04 88.3808 33.04 88.7408V89.1008C33.04 89.1474 33.0233 89.1874 32.99 89.2208C32.9566 89.2541 32.9166 89.2708 32.87 89.2708H31.16C31.1133 89.2708 31.0733 89.2541 31.04 89.2208C31 89.1874 30.98 89.1474 30.98 89.1008V88.4208C31.0133 87.9008 31.18 87.4374 31.48 87.0308C31.78 86.6308 32.1766 86.3241 32.67 86.1108C33.17 85.8974 33.73 85.7908 34.35 85.7908C35.0366 85.7908 35.6333 85.9208 36.14 86.1808C36.6466 86.4341 37.0366 86.7774 37.31 87.2108C37.59 87.6508 37.73 88.1341 37.73 88.6608C37.73 89.0674 37.6266 89.4841 37.42 89.9108C37.22 90.3374 36.9166 90.7974 36.51 91.2908C36.21 91.6641 35.8866 92.0374 35.54 92.4108C35.1933 92.7774 34.6766 93.3074 33.99 94.0008L33.77 94.2208V94.2208ZM42.63 96.2208C41.5633 96.2208 40.7233 95.9241 40.11 95.3308C39.49 94.7374 39.18 93.9274 39.18 92.9008V89.0708C39.18 88.0641 39.49 87.2674 40.11 86.6808C40.7233 86.0874 41.5633 85.7908 42.63 85.7908C43.69 85.7908 44.5333 86.0874 45.16 86.6808C45.78 87.2674 46.09 88.0641 46.09 89.0708V92.9008C46.09 93.9274 45.78 94.7374 45.16 95.3308C44.5333 95.9241 43.69 96.2208 42.63 96.2208ZM42.63 94.4708C43.0633 94.4708 43.4066 94.3374 43.66 94.0708C43.92 93.8041 44.05 93.4474 44.05 93.0008V89.0108C44.05 88.5708 43.92 88.2174 43.66 87.9508C43.4066 87.6841 43.0633 87.5508 42.63 87.5508C42.2033 87.5508 41.8633 87.6841 41.61 87.9508C41.35 88.2174 41.22 88.5708 41.22 89.0108V93.0008C41.22 93.4474 41.35 93.8041 41.61 94.0708C41.8633 94.3374 42.2033 94.4708 42.63 94.4708ZM50.15 94.2208C50.13 94.2408 50.1266 94.2608 50.14 94.2808C50.1466 94.3008 50.1666 94.3108 50.2 94.3108H54.13C54.1766 94.3108 54.2166 94.3274 54.25 94.3608C54.2833 94.3941 54.3 94.4341 54.3 94.4808V95.8908C54.3 95.9374 54.2833 95.9774 54.25 96.0108C54.2166 96.0441 54.1766 96.0608 54.13 96.0608H47.6C47.5533 96.0608 47.5133 96.0441 47.48 96.0108C47.4466 95.9774 47.43 95.9374 47.43 95.8908V94.5508C47.43 94.4641 47.4566 94.3908 47.51 94.3308C47.99 93.8708 48.4733 93.3674 48.96 92.8208C49.4533 92.2741 49.7633 91.9341 49.89 91.8008C50.1633 91.4808 50.44 91.1741 50.72 90.8808C51.6 89.9074 52.04 89.1841 52.04 88.7108C52.04 88.3708 51.92 88.0908 51.68 87.8708C51.4333 87.6574 51.1166 87.5508 50.73 87.5508C50.3433 87.5508 50.03 87.6574 49.79 87.8708C49.55 88.0908 49.43 88.3808 49.43 88.7408V89.1008C49.43 89.1474 49.4133 89.1874 49.38 89.2208C49.3466 89.2541 49.3033 89.2708 49.25 89.2708H47.54C47.4933 89.2708 47.4533 89.2541 47.42 89.2208C47.3866 89.1874 47.37 89.1474 47.37 89.1008V88.4208C47.3966 87.9008 47.56 87.4374 47.86 87.0308C48.16 86.6308 48.56 86.3241 49.06 86.1108C49.56 85.8974 50.1166 85.7908 50.73 85.7908C51.4166 85.7908 52.0133 85.9208 52.52 86.1808C53.0333 86.4341 53.4266 86.7774 53.7 87.2108C53.9733 87.6508 54.11 88.1341 54.11 88.6608C54.11 89.0674 54.01 89.4841 53.81 89.9108C53.6033 90.3374 53.2966 90.7974 52.89 91.2908C52.59 91.6641 52.2666 92.0374 51.92 92.4108C51.5733 92.7774 51.0566 93.3074 50.37 94.0008L50.15 94.2208V94.2208ZM58.27 94.2208C58.25 94.2408 58.2466 94.2608 58.26 94.2808C58.2666 94.3008 58.2866 94.3108 58.32 94.3108H62.25C62.2966 94.3108 62.3366 94.3274 62.37 94.3608C62.4033 94.3941 62.42 94.4341 62.42 94.4808V95.8908C62.42 95.9374 62.4033 95.9774 62.37 96.0108C62.3366 96.0441 62.2966 96.0608 62.25 96.0608H55.72C55.6733 96.0608 55.6333 96.0441 55.6 96.0108C55.5666 95.9774 55.55 95.9374 55.55 95.8908V94.5508C55.55 94.4641 55.5766 94.3908 55.63 94.3308C56.11 93.8708 56.5933 93.3674 57.08 92.8208C57.5733 92.2741 57.8833 91.9341 58.01 91.8008C58.2833 91.4808 58.56 91.1741 58.84 90.8808C59.72 89.9074 60.16 89.1841 60.16 88.7108C60.16 88.3708 60.04 88.0908 59.8 87.8708C59.5533 87.6574 59.2366 87.5508 58.85 87.5508C58.4633 87.5508 58.15 87.6574 57.91 87.8708C57.67 88.0908 57.55 88.3808 57.55 88.7408V89.1008C57.55 89.1474 57.5333 89.1874 57.5 89.2208C57.4666 89.2541 57.4233 89.2708 57.37 89.2708H55.66C55.6133 89.2708 55.5733 89.2541 55.54 89.2208C55.5066 89.1874 55.49 89.1474 55.49 89.1008V88.4208C55.5166 87.9008 55.68 87.4374 55.98 87.0308C56.28 86.6308 56.68 86.3241 57.18 86.1108C57.68 85.8974 58.2366 85.7908 58.85 85.7908C59.5366 85.7908 60.1333 85.9208 60.64 86.1808C61.1533 86.4341 61.5466 86.7774 61.82 87.2108C62.0933 87.6508 62.23 88.1341 62.23 88.6608C62.23 89.0674 62.13 89.4841 61.93 89.9108C61.7233 90.3374 61.4166 90.7974 61.01 91.2908C60.71 91.6641 60.3866 92.0374 60.04 92.4108C59.6933 92.7774 59.1766 93.3074 58.49 94.0008L58.27 94.2208V94.2208Z" fill="#252530"/>
</svg>
