<svg xmlns="http://www.w3.org/2000/svg" width="141" height="59" xmlns:v="https://vecta.io/nano"><defs><linearGradient id="A" x1=".107" y1=".842" x2=".893" y2=".158"><stop offset="0" stop-color="#f2662e"/><stop offset="1" stop-color="#ef4177"/></linearGradient><clipPath id="B"><path d="M0 0h141v59H0z"/></clipPath></defs><g clip-path="url(#B)"><path d="M52.127 15.023l-.032-.034c-.02-.018-.041-.033-.063-.049-.044-.042-.092-.079-.143-.112L28.232 1.146a1.01 1.01 0 0 0-.192-.079l-.056-.023-.041-.01a.97.97 0 0 0-.768.111L3.519 14.828a.99.99 0 0 0-.339.334l-.035.048c-.01.017-.02.047-.031.07a1 1 0 0 0-.114.453v27.366a.99.99 0 0 0 .017.118c.017.332.207.63.5.786l23.657 13.681c.363.177.788.177 1.151 0l23.409-13.626c.402-.15.67-.531.674-.96V15.733c.008-.265-.094-.522-.281-.71zM5.1 41.28V17.549l20.51 11.866zm24.739-11.889l20.473-11.842v23.732l-7.445-4.306zm-1.088-1.792V3.867l20.516 11.866zm-2.1 0L6.141 15.733 26.656 3.867zm0 3.633v23.731L6.141 43.099zm2.189.054l12.967 7.5 7.412 4.313-20.375 11.858z" fill="url(#A)"/><g fill="#454546"><path d="M75.493 25.052l-3.924 11.23h-4.092l-3.89-11.23h3.835l2.092 7.946h.055l.348-1.432 1.744-6.514zm6.812.788v2.312h4.7l-.037 3.138h-4.661v4.991h-3.834V22.519h9.45l.055 3.321zm16.702 8.07h-4.262l-.606 2.368h-4.055l4.569-13.762h4.592l4.642 13.762h-4.275zm-2.477-6.917l-.991 3.853h2.7l-.975-3.836-.331-1.468h-.055zm10.356-4.474h3.927v13.762h-3.927zm16.715 8.221l2.991 5.542h-4.478l-2.017-4.789h-1.4v4.789h-3.835V22.519h5.247c3.689 0 5.56 1.376 5.56 4.459.006 1.832-.747 3.232-2.068 3.762zm-3.45-5.156h-1.45v3.156h1.413c1.138 0 1.559-.275 1.559-1.615 0-1.211-.385-1.541-1.523-1.541zm13.18 10.955c-1.521.012-3.024-.334-4.387-1.009l.478-3.175a8.6 8.6 0 0 0 3.872.991c1.229 0 1.706-.367 1.706-1.046 0-1.688-6.037-.972-6.037-5.615 0-2.422 1.56-4.4 5.248-4.4 1.364-.004 2.718.233 4 .7l-.44 3.1a12.33 12.33 0 0 0-3.34-.532c-1.487 0-1.781.4-1.781.936 0 1.706 6.02.936 6.02 5.578-.002 2.747-2.018 4.472-5.339 4.472z"/></g></g></svg>